PathFileType	4	(X/Y/Z)	19_coords_data.trc
DataRate	CameraRate	NumFrames	NumMarkers	Units	OrigDataRate	OrigDataStartFrame	OrigNumFrames
30.0	30.0	9	21	m	30.0	66	75
Frame#	Time	THUMB_TIP	THUMB_IP	THUMB_MCP	THUMB_CMC	INDEX_TIP	INDEX_DIP	INDEX_PIP	INDEX_MCP	MIDDLE_TIP	MIDDLE_DIP	MIDDLE_PIP	MIDDLE_MCP	RING_TIP	RING_DIP	RING_PIP	RING_MCP	PINKY_TIP	PINKY_DIP	PINKY_PIP	PINKY_MCP	WRIST
X1	Y1	Z1	X2	Y2	Z2	X3	Y3	Z3	X4	Y4	Z4	X5	Y5	Z5	X6	Y6	Z6	X7	Y7	Z7	X8	Y8	Z8	X9	Y9	Z9	X10	Y10	Z10	X11	Y11	Z11	X12	Y12	Z12	X13	Y13	Z13	X14	Y14	Z14	X15	Y15	Z15	X16	Y16	Z16	X17	Y17	Z17	X18	Y18	Z18	X19	Y19	Z19	X20	Y20	Z20	X21	Y21	Z21
64	2.1666666666666576	0.5376750625388758	0.07026168635940278	-0.0776328568017211	0.524714620827091	0.051453951450846525	-0.07512366206138918	0.5075745873983989	0.025749773249377106	-0.0789097520035878	0.48438057969808535	-0.0055232755808055645	-0.0571399466837689	0.5019730037313542	0.1327086760561642	-0.017638607986631166	0.49252479097766094	0.12051314989195339	-0.027125462962807295	0.4829905716566529	0.1004776496645412	-0.038944398006891645	0.4815913126976991	0.0593457290852174	-0.04989169346385208	0.47207726267090466	0.13342030195429888	0.016717041133678362	0.4690284600881838	0.11874873150217935	0.006546012509193622	0.4651786430444591	0.09505021688567716	-0.00997575687853472	0.46782730305686904	0.05543009755702022	-0.03045449379079722	0.46963095670818167	0.11406477237926138	0.03497564060938754	0.4656241504755456	0.09963179767354768	0.02494395356490991	0.4610882792494984	0.0796744848026395	0.010755524681012957	0.46422232776076333	0.045887287382705644	-0.011229103231132048	0.47011413162444043	0.06599058701487137	0.06491140653948566	0.46805457044102494	0.056742497291124905	0.050655493934769535	0.4659863782715272	0.04596545808365604	0.03275605187445077	0.4656773325805922	0.027580934553195102	0.0017270777322261621	0.4622830810018609	-0.023011742144276925	-0.051989820119430985
65	2.1999999999999904	0.5369468583917599	0.07083890828298822	-0.07786626969915258	0.5241809503471246	0.05191928149113101	-0.07520557169810929	0.5072441560941534	0.026065647644156642	-0.07888723128844424	0.48428564094839666	-0.005409664054959462	-0.05715933825332603	0.5020714792509623	0.1323626935568314	-0.017070500474649183	0.49247273915150325	0.12032581629569672	-0.02660872747464328	0.4827389797107008	0.10047282890273179	-0.038572115444752864	0.48122556399424155	0.059429043221090216	-0.0498305933076193	0.47269779477632473	0.13300591203404022	0.017338810924898793	0.4694184257043902	0.11844173195018526	0.007085499412266438	0.4652196373775692	0.09492006507509532	-0.009603146848106509	0.46757404712408274	0.05541638030671214	-0.03034112084427451	0.470284789329398	0.11372129939958842	0.035351148527001997	0.4660645426076562	0.09936293520986195	0.02529993489864795	0.46123573197932255	0.07952432192729886	0.011041884893804838	0.46406847869365275	0.045830002125530234	-0.011125415193228669	0.47065474388348066	0.06590671043308183	0.06494644305743039	0.4684393160248993	0.0566733945741148	0.05070433093696283	0.46620725317853096	0.04590727328897781	0.03281800803583017	0.4656789364275624	0.027493060436423855	0.001809604377604107	0.4622830810018609	-0.023011742144276925	-0.051989820119430985
67	2.2333333333333347	0.5360810623488758	0.07151745700687129	-0.07820212629076012	0.523555737183378	0.05247186676726512	-0.07530700592649764	0.5068731625880565	0.026432120713379526	-0.07883451642551584	0.48418090390283697	-0.005285320510400648	-0.05717914023439122	0.5021650059568441	0.13197653366937145	-0.016466462863733045	0.4923981940772648	0.12012205107557838	-0.026062328022350298	0.48244680468020895	0.10046679226013921	-0.03817226125776772	0.4808126994762607	0.05952110732798355	-0.049766082009317786	0.4733755571382109	0.13254667519297214	0.01799320173315988	0.46983591808509273	0.1181071263522987	0.007650552911342437	0.4652585957675788	0.09477864799541424	-0.009208858939430076	0.4672853756755228	0.05540228449629192	-0.030221761684880097	0.47103897937905514	0.11333669663723256	0.035743017168303866	0.46657051601790434	0.09906595718971722	0.025674311650155802	0.46140932464935824	0.07935937086657663	0.011349768441178548	0.4638981017333976	0.045768655282546034	-0.011015173972758918	0.4713120863971094	0.0658230234348699	0.06496516180750939	0.468904251671285	0.056600750531695665	0.05074714456063241	0.4664646691279557	0.04585045323414383	0.032878413099542786	0.4656813625992449	0.02739913322022136	0.0018974726421275012	0.4622830810018609	-0.023011742144276925	-0.051989820119430985
68	2.266666666666668	0.5350970109012176	0.07226519781174545	-0.07853199379011094	0.5228332789083341	0.05308558130912766	-0.07541058570733208	0.5064441246879177	0.026841069137362283	-0.07879307071180186	0.484053821268593	-0.005137917954449067	-0.05720815242675045	0.5020762009438382	0.13162777577273133	-0.015939304568947488	0.49215004903263426	0.1199510779170676	-0.025589498112252404	0.4819960195327774	0.10048723911265278	-0.037839579618584876	0.4802773013195064	0.05963936720880192	-0.04976155355874959	0.47392115236709287	0.13211124092788396	0.018551692467906333	0.47010949543690433	0.11779984265465304	0.008127914318333554	0.4651541522421456	0.09466280680465344	-0.008887716610256502	0.4668822751173976	0.055407806689540706	-0.030152863642208386	0.4717503237567667	0.11296992366356706	0.036061485026576086	0.4670100294405445	0.09879370101289775	0.025983572487054657	0.46149042082234504	0.07922269593400999	0.011606867026343226	0.4636192674911273	0.04573606889659532	-0.010950496638719706	0.47204156357085003	0.06580401883695508	0.06491230456399637	0.46939438285464646	0.05658892436954899	0.05073223163708444	0.46669459701009963	0.04585195307268819	0.03289293168546149	0.46559605319958697	0.02734079751928742	0.0019572924876981868	0.4622830810018609	-0.023011742144276925	-0.051989820119430985
69	2.300000000000001	0.5340236931999895	0.07305931583920222	-0.07880615275506042	0.5220286218478937	0.05374172023871693	-0.07549726117716973	0.505964906509647	0.02728243895378435	-0.07876582101547758	0.4839050442432895	-0.0049694379172766645	-0.05724678490594773	0.5017715956774285	0.13133789149271535	-0.015522912288322727	0.4917017931006757	0.11982627098067289	-0.02522248285881444	0.481370209517016	0.10053805059565446	-0.03760120524978894	0.4796130801125436	0.059783036189235084	-0.049831388853827485	0.4742926454651295	0.1317221314634276	0.018976204924255682	0.4702020977801201	0.11753835537040147	0.008483926078382276	0.4648812881511472	0.09458263959882474	-0.00866639894206031	0.46635397709683246	0.05543608911646336	-0.030149571277662768	0.4723868432153701	0.11263787367803169	0.03627771122867174	0.46735403224036903	0.09856183218329062	0.026201210371318513	0.46145542261225214	0.07912614323941491	0.011791478287341506	0.46321537768174914	0.04573995381887963	-0.010945842314028967	0.47283983444654437	0.06586155188297016	0.06476903889326002	0.46990164751662095	0.0566504632715954	0.050643781226292386	0.4668837948717154	0.04592474933595603	0.03284873570838287	0.4654029600106807	0.02732890891362183	0.0019798954628953425	0.4622830810018609	-0.023011742144276925	-0.051989820119430985
70	2.3333333333333344	0.532891122162594	0.07387929357961354	-0.07897542713066752	0.5211570590828909	0.05442252635345346	-0.07554818731580676	0.5054433819189577	0.027746478460580204	-0.07875580618419112	0.48373523384430533	-0.004781949428907084	-0.057295431392324125	0.5012177695136304	0.13112843046117095	-0.015250670745490011	0.49102664809040963	0.11976083223922185	-0.02499329640808809	0.4805524952321558	0.10062246112386442	-0.037484281395381416	0.47881334200208214	0.059950383502136995	-0.04999002175629194	0.474448296093252	0.1314023077909613	0.01922948317103107	0.47007680937174373	0.11734118990871933	0.00868552434403573	0.4644148962430157	0.09454764004479699	-0.00857154302917748	0.4656894685670494	0.05548935294029422	-0.030227341210104453	0.47291632413946005	0.11235729730926025	0.03636276517608233	0.4675730810092424	0.098385805673327	0.026300599687558802	0.4612804579062202	0.07908101675160084	0.011881584528023403	0.4626695700572988	0.045787176073643354	-0.011016261972084801	0.47370337515535454	0.06600581194014943	0.0645137842634028	0.4704176424307473	0.05679669299292922	0.05046401242616659	0.46701877134934444	0.04608100910110313	0.032731730759599745	0.46508178576468845	0.02737391119361776	0.001955505751899539	0.4622830810018609	-0.023011742144276925	-0.051989820119430985
71	2.3666666666666676	0.5317297258024761	0.07470622404689453	-0.07899115581005914	0.5202339880307079	0.05511106330492621	-0.0755447535440481	0.5048874556217726	0.028223775938723272	-0.07876620059602962	0.48354509475301494	-0.004577614074497194	-0.057354464427555985	0.5003811692815645	0.13102022290674142	-0.015155738379347597	0.4900974622174058	0.11976710950326275	-0.024933918565201038	0.4795254303099175	0.10074262870297024	-0.03751609264706594	0.4778709209136469	0.060138496685892884	-0.05025199292138527	0.474346555310396	0.13117441865668178	0.019274702980544754	0.4696968285184441	0.11722620608299572	0.00869985514431218	0.4637297405063863	0.09456613967798866	-0.00863002659726439	0.4648774482536091	0.055568596653418734	-0.030402080381273622	0.47330631253684335	0.11214440939799952	0.03628736220525603	0.4676373154235281	0.09828046138315116	0.026254744542312518	0.4609413287555684	0.079097695437648	0.011854562869064167	0.4619646271713309	0.04588341457363587	-0.011177702348209195	0.4746281936062927	0.06624475751099745	0.06412138366045858	0.47093338487005926	0.057037264708214575	0.05017253192673678	0.4670856738677339	0.046331724657485585	0.03252604357168942	0.4646119041277254	0.02748556262596158	0.0018733749936526156	0.4622830810018609	-0.023011742144276925	-0.051989820119430985
72	2.400000000000001	0.5305695068825731	0.0755214574388714	-0.07880493758351045	0.5192746963379016	0.05579087271535099	-0.07546858010446872	0.504305082677888	0.028705265855033302	-0.07880033157753119	0.48333540748968273	-0.004358687294986563	-0.05742422986102408	0.4992278553128001	0.13103239128866118	-0.015271434286177832	0.4888865872558273	0.11985573629739221	-0.025076563463296273	0.4782709216706349	0.1008990960311259	-0.03772422202125586	0.4767781419453806	0.060342996924759196	-0.050631992082983496	0.4739460050812946	0.131059874943381	0.019074915209231685	0.469025391770238	0.11720972926647022	0.008493751314300219	0.4628004303514557	0.09464463666324152	-0.008869312964287876	0.4639063225239387	0.05567323638825972	-0.030690286455633126	0.473524149229299	0.11201435908446822	0.03602151712950814	0.46751647775772054	0.09825948878615798	0.026035956225570582	0.46041349772540857	0.07918514811625643	0.011686838424495777	0.4610829245466961	0.046032738939001616	-0.011447345535065392	0.4756093809793316	0.06658341716740446	0.06356220016264966	0.47143898940074946	0.05737959504502921	0.04974563429334014	0.46707016619994896	0.04668624816978795	0.03221344288878614	0.4639723108234126	0.027672585763509505	0.0017213556370721528	0.4622830810018609	-0.023011742144276925	-0.051989820119430985
73	2.433333333333334	0.529439023656511	0.07630455927946678	-0.07836823752192584	0.518294102818203	0.056445409379436984	-0.07530149580538181	0.5037042901266819	0.029182204219296293	-0.07886169383672989	0.4831070583702219	-0.004127515346116883	-0.05750504085822672	0.49772320713997975	0.13118116728315776	-0.015631714012118464	0.4873657700661924	0.12003458879311057	-0.025453999144802855	0.4767701966799113	0.10109013387103205	-0.03813671515208067	0.47552683122290673	0.06055770298516072	-0.05114487346993657	0.4732052589655444	0.1310777511577047	0.018592348653239082	0.4680256781268372	0.11730552649923676	0.008033098192529883	0.46160144267496256	0.09478700135265594	-0.009317831871350962	0.46276426442762814	0.05580068018503115	-0.031109172545718544	0.4735370724293348	0.11198054902986443	0.035534128717741933	0.4671800033044219	0.09833474532798836	0.025615473896096683	0.4596721454732444	0.07935032868907099	0.0113534973617299	0.4600064555080823	0.04623708724610853	-0.011843966119019209	0.4766404634609098	0.06702303707734025	0.06280119177943225	0.47192326039382326	0.05782817999054335	0.04915558448707438	0.46695731666928497	0.047151700191165435	0.031772713578671605	0.46314164449794637	0.027942219197836127	0.001485423557149479	0.4622830810018609	-0.023011742144276925	-0.051989820119430985
